custom-analysis
version=1
nRows=15
nColumns=42
inDegrees=no

This file contains tibia displacement and acting force.

Units are S.I. units (seconds, meters, Newtons, ...)
Angles are in degrees.

endheader
time	APT	SIT	knee_angle	aACL_R_force	pACL_R_force	aPCL_R_force	pPCL_R_force	aMCL_R_force	mMCL_R_force	pMCL_R_force	aLCL_R_force	mLCL_R_force	pLCL_R_force	aACL_R_length	pACL_R_length	aPCL_R_length	pPCL_R_length	aMCL_R_length	mMCL_R_length	pMCL_R_length	aLCL_R_length	mLCL_R_length	pLCL_R_length	aACL_R_strain	pACL_R_strain	aPCL_R_strain	pPCL_R_strain	aMCL_R_strain	mMCL_R_strain	pMCL_R_strain	aLCL_R_strain	mLCL_R_strain	pLCL_R_strain	femur_lat_meniscii_force_r	femur_lat_meniscii_torque_r	femur_med_meniscii_force_r	femur_med_meniscii_torque_r	femur_lat_tibia_force_r	femur_lat_tibia_torque_r	femur_med_tibia_force_r	femur_med_tibia_torque_r
      0.50922174	      0.00330160	      0.00033687	     15.00005728	     47.15611235	     39.55208829	      0.00000000	      0.00000000	      0.00000000	      4.96661155	      4.96987481	     -0.29567698	      0.00000000	      0.00000000	      0.03421044	      0.02752236	      0.02982781	      0.02960664	      0.05762377	      0.06108341	      0.06195744	      0.05606352	      0.05385175	      0.05115315	      0.07900637	      0.06433649	     -0.04076141	     -0.01599187	     -0.00694902	      0.02157269	      0.02024502	      0.00154200	     -0.04380169	     -0.02272619	     82.93298358	     16.21544208	     73.81642887	     17.29799761	      0.00000000	      0.00000000	      0.00000000	      0.00000000
      0.51036020	      0.00330353	      0.00033574	     15.00005728	     47.18733456	     39.57923537	      0.00000000	      0.00000000	      0.00000000	      4.90661174	      4.91126590	     -0.36919374	      0.00000000	      0.00000000	      0.03421136	      0.02752294	      0.02982853	      0.02960762	      0.05762661	      0.06108621	      0.06196029	      0.05606303	      0.05385131	      0.05115274	      0.07903554	      0.06435906	     -0.04073842	     -0.01595931	     -0.00690009	      0.02161949	      0.02029193	      0.00153327	     -0.04380943	     -0.02273395	     83.08562197	     16.22850324	     73.70126458	     17.28125158	      0.00000000	      0.00000000	      0.00000000	      0.00000000
      0.51251571	      0.00330719	      0.00033395	     15.00005728	     47.14458712	     39.52021309	      0.00000000	      0.00000000	      0.00000000	      4.69978900	      4.70714411	     -0.58798294	      0.00000000	      0.00000000	      0.03421288	      0.02752383	      0.02982955	      0.02960913	      0.05763158	      0.06109110	      0.06196528	      0.05606180	      0.05385018	      0.05115167	      0.07908344	      0.06439332	     -0.04070562	     -0.01590914	     -0.00681443	      0.02170132	      0.02037413	      0.00151129	     -0.04382952	     -0.02275450	     83.30313060	     16.28360702	     73.55529629	     17.26145167	      0.00000000	      0.00000000	      0.00000000	      0.00000000
      0.51703039	      0.00331460	      0.00033093	     15.00005728	     47.20306534	     39.54842366	      0.00000000	      0.00000000	      0.00000000	      4.60267127	      4.61196895	     -0.60268633	      0.00000000	      0.00000000	      0.03421544	      0.02752510	      0.02983119	      0.02961174	      0.05764106	      0.06110041	      0.06197480	      0.05605886	      0.05384745	      0.05114905	      0.07916413	      0.06444259	     -0.04065278	     -0.01582221	     -0.00665111	      0.02185708	      0.02053091	      0.00145885	     -0.04387807	     -0.02280452	     83.67883227	     16.37533371	     73.28412072	     17.20899834	      0.00000000	      0.00000000	      0.00000000	      0.00000000
      0.52430725	      0.00332560	      0.00032794	     15.00005728	     47.59110349	     39.88927286	      0.00000000	      0.00000000	      0.00000000	      5.17769537	      5.18804455	      0.34030513	      0.00000000	      0.00000000	      0.03421808	      0.02752586	      0.02983239	      0.02961434	      0.05765358	      0.06111269	      0.06198740	      0.05605323	      0.05384211	      0.05114389	      0.07924760	      0.06447179	     -0.04061429	     -0.01573583	     -0.00643520	      0.02206240	      0.02073840	      0.00135820	     -0.04397280	     -0.02290309	     84.08404871	     16.47771494	     72.89970134	     17.14720440	      0.00000000	      0.00000000	      0.00000000	      0.00000000
      0.52503494	      0.00332661	      0.00032738	     15.00005728	     47.40453638	     39.69187529	      0.00000000	      0.00000000	      0.00000000	      4.81123808	      4.82211897	     -0.06088944	      0.00000000	      0.00000000	      0.03421848	      0.02752606	      0.02983282	      0.02961491	      0.05765505	      0.06111412	      0.06198887	      0.05605304	      0.05384196	      0.05114375	      0.07925991	      0.06447953	     -0.04060043	     -0.01571709	     -0.00641000	      0.02208643	      0.02076257	      0.00135488	     -0.04397556	     -0.02290571	     84.23246095	     16.50661643	     72.91641865	     17.14901276	      0.00000000	      0.00000000	      0.00000000	      0.00000000
      0.52576262	      0.00332765	      0.00032664	     15.00005728	     47.49655253	     39.78844952	      0.00000000	      0.00000000	      0.00000000	      4.87089441	      4.88130608	      0.01530539	      0.00000000	      0.00000000	      0.03421908	      0.02752648	      0.02983335	      0.02961558	      0.05765666	      0.06111572	      0.06199049	      0.05605302	      0.05384197	      0.05114378	      0.07927902	      0.06449592	     -0.04058328	     -0.01569484	     -0.00638221	      0.02211302	      0.02078924	      0.00135448	     -0.04397541	     -0.02290522	     84.22049817	     16.51034935	     72.82255883	     17.11932520	      0.00000000	      0.00000000	      0.00000000	      0.00000000
      0.52940105	      0.00333310	      0.00032255	     15.00005728	     47.73441794	     40.04667821	      0.00000000	      0.00000000	      0.00000000	      4.78911005	      4.80097771	     -0.05770088	      0.00000000	      0.00000000	      0.03422307	      0.02752966	      0.02983567	      0.02961859	      0.05766466	      0.06112363	      0.06199854	      0.05605303	      0.05384213	      0.05114401	      0.07940474	      0.06461901	     -0.04050865	     -0.01559479	     -0.00624434	      0.02224534	      0.02092183	      0.00135465	     -0.04397247	     -0.02290075	     80.98176806	     15.83473809	     72.36962987	     17.01596298	      0.00000000	      0.00000000	      0.00000000	      0.00000000
      0.53635269	      0.00334774	      0.00032012	     15.00005728	     47.68068742	     39.92426502	      0.00000000	      0.00000000	      0.00000000	      3.99587155	      4.05554853	     -1.17082040	      0.00000000	      0.00000000	      0.03422815	      0.02753295	      0.02983451	      0.02961880	      0.05767519	      0.06113388	      0.06200932	      0.05604823	      0.05383779	      0.05113986	      0.07956508	      0.06474601	     -0.04054596	     -0.01558786	     -0.00606281	      0.02241683	      0.02109927	      0.00126883	     -0.04404955	     -0.02298013	     82.03982579	     16.09701272	     72.71015653	     17.14286914	      0.00000000	      0.00000000	      0.00000000	      0.00000000
      0.54330434	      0.00336577	      0.00031911	     15.00005728	     47.93074659	     40.13607739	      0.00000000	      0.00000000	      0.00000000	      4.10140597	      4.16841922	     -0.89051038	      0.00000000	      0.00000000	      0.03423355	      0.02753635	      0.02983134	      0.02961705	      0.05768441	      0.06114274	      0.06201890	      0.05604273	      0.05383290	      0.05113520	      0.07973540	      0.06487773	     -0.04064808	     -0.01564601	     -0.00590392	      0.02256507	      0.02125701	      0.00117060	     -0.04413631	     -0.02306911	     82.77970217	     16.23333279	     73.20010445	     17.29311966	      0.00000000	      0.00000000	      0.00000000	      0.00000000
      0.54399950	      0.00336751	      0.00031913	     15.00005728	     47.97258654	     40.17436801	      0.00000000	      0.00000000	      0.00000000	      4.17812561	      4.24478551	     -0.76446303	      0.00000000	      0.00000000	      0.03423401	      0.02753663	      0.02983091	      0.02961675	      0.05768516	      0.06114346	      0.06201968	      0.05604209	      0.05383233	      0.05113465	      0.07975001	      0.06488854	     -0.04066183	     -0.01565580	     -0.00589107	      0.02257698	      0.02126988	      0.00115930	     -0.04414651	     -0.02307968	     82.83413335	     16.23345336	     73.25153630	     17.31121804	      0.00000000	      0.00000000	      0.00000000	      0.00000000
      0.54609909	      0.00337258	      0.00031881	     15.00005728	     47.99057210	     40.18033660	      0.00000000	      0.00000000	      0.00000000	      4.19618395	      4.26160738	     -0.63805065	      0.00000000	      0.00000000	      0.03423559	      0.02753766	      0.02983004	      0.02961628	      0.05768772	      0.06114592	      0.06202235	      0.05604066	      0.05383107	      0.05113345	      0.07979969	      0.06492808	     -0.04068968	     -0.01567147	     -0.00584685	      0.02261823	      0.02131383	      0.00113365	     -0.04416892	     -0.02310257	     83.00079919	     16.26103448	     73.36024084	     17.34222365	      0.00000000	      0.00000000	      0.00000000	      0.00000000
      0.54645988	      0.00337341	      0.00031878	     15.00005728	     48.01282176	     40.20107263	      0.00000000	      0.00000000	      0.00000000	      4.23574032	      4.30066215	     -0.57194219	      0.00000000	      0.00000000	      0.03423581	      0.02753778	      0.02982991	      0.02961621	      0.05768814	      0.06114632	      0.06202278	      0.05604042	      0.05383086	      0.05113325	      0.07980661	      0.06493289	     -0.04069398	     -0.01567378	     -0.00583966	      0.02262491	      0.02132096	      0.00112934	     -0.04417268	     -0.02310640	     83.02254330	     16.26760565	     73.37997589	     17.34959738	      0.00000000	      0.00000000	      0.00000000	      0.00000000
      0.54826384	      0.00337726	      0.00031911	     15.00005728	     47.87872197	     40.04218254	      0.00000000	      0.00000000	      0.00000000	      4.10874290	      4.17112223	     -0.58212265	      0.00000000	      0.00000000	      0.03423627	      0.02753777	      0.02982905	      0.02961564	      0.05768974	      0.06114783	      0.06202445	      0.05603889	      0.05382947	      0.05113192	      0.07982128	      0.06493247	     -0.04072163	     -0.01569263	     -0.00581210	      0.02265012	      0.02134851	      0.00110212	     -0.04419732	     -0.02313179	     83.25004718	     16.30548003	     73.60654068	     17.40438540	      0.00000000	      0.00000000	      0.00000000	      0.00000000
      0.55006779	      0.00338079	      0.00031877	     15.00005728	     48.06236035	     40.22618018	      0.00000000	      0.00000000	      0.00000000	      4.37680962	      4.43351440	     -0.16926399	      0.00000000	      0.00000000	      0.03423710	      0.02753813	      0.02982894	      0.02961581	      0.05769191	      0.06114991	      0.06202669	      0.05603820	      0.05382890	      0.05113141	      0.07984734	      0.06494653	     -0.04072523	     -0.01568705	     -0.00577471	      0.02268496	      0.02138531	      0.00108966	     -0.04420742	     -0.02314156	     83.27838920	     16.31842929	     73.67608050	     17.42397028	      0.00000000	      0.00000000	      0.00000000	      0.00000000
